<mxfile host="app.diagrams.net" agent="Mozilla/5.0 (Macintosh; Intel Mac OS X 10_15_7) AppleWebKit/605.1.15 (KHTML, like Gecko) Version/18.4 Safari/605.1.15" version="27.0.4">
  <diagram name="Page-1" id="nisfJ_IRKRcmMYR0opHX">
    <mxGraphModel dx="852" dy="542" grid="1" gridSize="10" guides="1" tooltips="1" connect="1" arrows="1" fold="1" page="1" pageScale="1" pageWidth="827" pageHeight="1169" math="0" shadow="0">
      <root>
        <mxCell id="0" />
        <mxCell id="1" parent="0" />
        <mxCell id="eIXQAmytU_GyOYRYdAGd-5" value="Family" style="swimlane;fontStyle=0;childLayout=stackLayout;horizontal=1;startSize=30;horizontalStack=0;resizeParent=1;resizeParentMax=0;resizeLast=0;collapsible=1;marginBottom=0;whiteSpace=wrap;html=1;rounded=1;" vertex="1" parent="1">
          <mxGeometry x="90" y="110" width="140" height="330" as="geometry" />
        </mxCell>
        <mxCell id="eIXQAmytU_GyOYRYdAGd-8" value="familyCode&amp;nbsp;(&lt;span style=&quot;caret-color: rgb(0, 204, 0); color: rgb(0, 204, 0);&quot;&gt;String&lt;/span&gt;) PK" style="text;strokeColor=none;fillColor=none;align=left;verticalAlign=middle;spacingLeft=4;spacingRight=4;overflow=hidden;points=[[0,0.5],[1,0.5]];portConstraint=eastwest;rotatable=0;whiteSpace=wrap;html=1;" vertex="1" parent="eIXQAmytU_GyOYRYdAGd-5">
          <mxGeometry y="30" width="140" height="30" as="geometry" />
        </mxCell>
        <mxCell id="eIXQAmytU_GyOYRYdAGd-6" value="familyName (&lt;span style=&quot;color: rgb(0, 204, 0);&quot;&gt;String&lt;/span&gt;)" style="text;strokeColor=none;fillColor=none;align=left;verticalAlign=middle;spacingLeft=4;spacingRight=4;overflow=hidden;points=[[0,0.5],[1,0.5]];portConstraint=eastwest;rotatable=0;whiteSpace=wrap;html=1;" vertex="1" parent="eIXQAmytU_GyOYRYdAGd-5">
          <mxGeometry y="60" width="140" height="30" as="geometry" />
        </mxCell>
        <mxCell id="eIXQAmytU_GyOYRYdAGd-7" value="adminEmail&amp;nbsp;(&lt;span style=&quot;caret-color: rgb(0, 204, 0); color: rgb(0, 204, 0);&quot;&gt;String&lt;/span&gt;)" style="text;strokeColor=none;fillColor=none;align=left;verticalAlign=middle;spacingLeft=4;spacingRight=4;overflow=hidden;points=[[0,0.5],[1,0.5]];portConstraint=eastwest;rotatable=0;whiteSpace=wrap;html=1;" vertex="1" parent="eIXQAmytU_GyOYRYdAGd-5">
          <mxGeometry y="90" width="140" height="30" as="geometry" />
        </mxCell>
        <mxCell id="eIXQAmytU_GyOYRYdAGd-9" value="members (Array)" style="text;strokeColor=none;fillColor=none;align=left;verticalAlign=middle;spacingLeft=4;spacingRight=4;overflow=hidden;points=[[0,0.5],[1,0.5]];portConstraint=eastwest;rotatable=0;whiteSpace=wrap;html=1;" vertex="1" parent="eIXQAmytU_GyOYRYdAGd-5">
          <mxGeometry y="120" width="140" height="30" as="geometry" />
        </mxCell>
        <mxCell id="eIXQAmytU_GyOYRYdAGd-10" value="cook&amp;nbsp;(&lt;span style=&quot;caret-color: rgb(0, 204, 0); color: rgb(0, 204, 0);&quot;&gt;String&lt;/span&gt;)" style="text;strokeColor=none;fillColor=none;align=left;verticalAlign=middle;spacingLeft=4;spacingRight=4;overflow=hidden;points=[[0,0.5],[1,0.5]];portConstraint=eastwest;rotatable=0;whiteSpace=wrap;html=1;" vertex="1" parent="eIXQAmytU_GyOYRYdAGd-5">
          <mxGeometry y="150" width="140" height="30" as="geometry" />
        </mxCell>
        <mxCell id="eIXQAmytU_GyOYRYdAGd-12" value="selectedMeal (&lt;span style=&quot;caret-color: rgb(0, 204, 0); color: rgb(0, 204, 0);&quot;&gt;String&lt;/span&gt;)" style="text;strokeColor=none;fillColor=none;align=left;verticalAlign=middle;spacingLeft=4;spacingRight=4;overflow=hidden;points=[[0,0.5],[1,0.5]];portConstraint=eastwest;rotatable=0;whiteSpace=wrap;html=1;" vertex="1" parent="eIXQAmytU_GyOYRYdAGd-5">
          <mxGeometry y="180" width="140" height="30" as="geometry" />
        </mxCell>
        <mxCell id="eIXQAmytU_GyOYRYdAGd-11" value="isDeleted (&lt;span style=&quot;color: rgb(0, 102, 204);&quot;&gt;Bool&lt;/span&gt;)" style="text;strokeColor=none;fillColor=none;align=left;verticalAlign=middle;spacingLeft=4;spacingRight=4;overflow=hidden;points=[[0,0.5],[1,0.5]];portConstraint=eastwest;rotatable=0;whiteSpace=wrap;html=1;" vertex="1" parent="eIXQAmytU_GyOYRYdAGd-5">
          <mxGeometry y="210" width="140" height="30" as="geometry" />
        </mxCell>
        <mxCell id="eIXQAmytU_GyOYRYdAGd-14" value="isVotingOpen (&lt;span style=&quot;color: rgb(0, 102, 204);&quot;&gt;Bool&lt;/span&gt;)" style="text;strokeColor=none;fillColor=none;align=left;verticalAlign=middle;spacingLeft=4;spacingRight=4;overflow=hidden;points=[[0,0.5],[1,0.5]];portConstraint=eastwest;rotatable=0;whiteSpace=wrap;html=1;" vertex="1" parent="eIXQAmytU_GyOYRYdAGd-5">
          <mxGeometry y="240" width="140" height="30" as="geometry" />
        </mxCell>
        <mxCell id="eIXQAmytU_GyOYRYdAGd-43" value="foodMenu&amp;nbsp;(&lt;span style=&quot;color: rgb(204, 204, 0);&quot;&gt;Map&lt;/span&gt;)" style="text;strokeColor=none;fillColor=none;align=left;verticalAlign=middle;spacingLeft=4;spacingRight=4;overflow=hidden;points=[[0,0.5],[1,0.5]];portConstraint=eastwest;rotatable=0;whiteSpace=wrap;html=1;" vertex="1" parent="eIXQAmytU_GyOYRYdAGd-5">
          <mxGeometry y="270" width="140" height="30" as="geometry" />
        </mxCell>
        <mxCell id="eIXQAmytU_GyOYRYdAGd-13" value="votes&amp;nbsp;(&lt;span style=&quot;color: rgb(204, 204, 0);&quot;&gt;Map&lt;/span&gt;)" style="text;strokeColor=none;fillColor=none;align=left;verticalAlign=middle;spacingLeft=4;spacingRight=4;overflow=hidden;points=[[0,0.5],[1,0.5]];portConstraint=eastwest;rotatable=0;whiteSpace=wrap;html=1;" vertex="1" parent="eIXQAmytU_GyOYRYdAGd-5">
          <mxGeometry y="300" width="140" height="30" as="geometry" />
        </mxCell>
        <mxCell id="eIXQAmytU_GyOYRYdAGd-15" value="User" style="swimlane;fontStyle=0;childLayout=stackLayout;horizontal=1;startSize=30;horizontalStack=0;resizeParent=1;resizeParentMax=0;resizeLast=0;collapsible=1;marginBottom=0;whiteSpace=wrap;html=1;rounded=1;" vertex="1" parent="1">
          <mxGeometry x="650" y="110" width="140" height="240" as="geometry">
            <mxRectangle x="650" y="110" width="70" height="30" as="alternateBounds" />
          </mxGeometry>
        </mxCell>
        <mxCell id="eIXQAmytU_GyOYRYdAGd-19" value="uuid (&lt;span style=&quot;caret-color: rgb(0, 204, 0); color: rgb(0, 204, 0);&quot;&gt;String&lt;/span&gt;) PK" style="text;strokeColor=none;fillColor=none;align=left;verticalAlign=middle;spacingLeft=4;spacingRight=4;overflow=hidden;points=[[0,0.5],[1,0.5]];portConstraint=eastwest;rotatable=0;whiteSpace=wrap;html=1;" vertex="1" parent="eIXQAmytU_GyOYRYdAGd-15">
          <mxGeometry y="30" width="140" height="30" as="geometry" />
        </mxCell>
        <mxCell id="eIXQAmytU_GyOYRYdAGd-16" value="userName (&lt;span style=&quot;caret-color: rgb(0, 204, 0); color: rgb(0, 204, 0);&quot;&gt;String&lt;/span&gt;)" style="text;strokeColor=none;fillColor=none;align=left;verticalAlign=middle;spacingLeft=4;spacingRight=4;overflow=hidden;points=[[0,0.5],[1,0.5]];portConstraint=eastwest;rotatable=0;whiteSpace=wrap;html=1;" vertex="1" parent="eIXQAmytU_GyOYRYdAGd-15">
          <mxGeometry y="60" width="140" height="30" as="geometry" />
        </mxCell>
        <mxCell id="eIXQAmytU_GyOYRYdAGd-18" value="displayName (&lt;span style=&quot;caret-color: rgb(0, 204, 0); color: rgb(0, 204, 0);&quot;&gt;String&lt;/span&gt;)" style="text;strokeColor=none;fillColor=none;align=left;verticalAlign=middle;spacingLeft=4;spacingRight=4;overflow=hidden;points=[[0,0.5],[1,0.5]];portConstraint=eastwest;rotatable=0;whiteSpace=wrap;html=1;" vertex="1" parent="eIXQAmytU_GyOYRYdAGd-15">
          <mxGeometry y="90" width="140" height="30" as="geometry" />
        </mxCell>
        <mxCell id="eIXQAmytU_GyOYRYdAGd-17" value="userEmail (&lt;span style=&quot;caret-color: rgb(0, 204, 0); color: rgb(0, 204, 0);&quot;&gt;String&lt;/span&gt;)" style="text;strokeColor=none;fillColor=none;align=left;verticalAlign=middle;spacingLeft=4;spacingRight=4;overflow=hidden;points=[[0,0.5],[1,0.5]];portConstraint=eastwest;rotatable=0;whiteSpace=wrap;html=1;" vertex="1" parent="eIXQAmytU_GyOYRYdAGd-15">
          <mxGeometry y="120" width="140" height="30" as="geometry" />
        </mxCell>
        <mxCell id="eIXQAmytU_GyOYRYdAGd-21" value="photoUrl (&lt;span style=&quot;caret-color: rgb(0, 204, 0); color: rgb(0, 204, 0);&quot;&gt;String&lt;/span&gt;)" style="text;strokeColor=none;fillColor=none;align=left;verticalAlign=middle;spacingLeft=4;spacingRight=4;overflow=hidden;points=[[0,0.5],[1,0.5]];portConstraint=eastwest;rotatable=0;whiteSpace=wrap;html=1;" vertex="1" parent="eIXQAmytU_GyOYRYdAGd-15">
          <mxGeometry y="150" width="140" height="30" as="geometry" />
        </mxCell>
        <mxCell id="eIXQAmytU_GyOYRYdAGd-44" value="isDeleted (&lt;span style=&quot;color: rgb(0, 102, 204);&quot;&gt;Bool&lt;/span&gt;)" style="text;strokeColor=none;fillColor=none;align=left;verticalAlign=middle;spacingLeft=4;spacingRight=4;overflow=hidden;points=[[0,0.5],[1,0.5]];portConstraint=eastwest;rotatable=0;whiteSpace=wrap;html=1;" vertex="1" parent="eIXQAmytU_GyOYRYdAGd-15">
          <mxGeometry y="180" width="140" height="30" as="geometry" />
        </mxCell>
        <mxCell id="eIXQAmytU_GyOYRYdAGd-20" value="families (&lt;span style=&quot;color: rgb(204, 204, 0);&quot;&gt;Map&lt;/span&gt;)" style="text;strokeColor=none;fillColor=none;align=left;verticalAlign=middle;spacingLeft=4;spacingRight=4;overflow=hidden;points=[[0,0.5],[1,0.5]];portConstraint=eastwest;rotatable=0;whiteSpace=wrap;html=1;" vertex="1" parent="eIXQAmytU_GyOYRYdAGd-15">
          <mxGeometry y="210" width="140" height="30" as="geometry" />
        </mxCell>
        <mxCell id="eIXQAmytU_GyOYRYdAGd-25" value="Votes" style="swimlane;fontStyle=0;childLayout=stackLayout;horizontal=1;startSize=30;horizontalStack=0;resizeParent=1;resizeParentMax=0;resizeLast=0;collapsible=1;marginBottom=0;whiteSpace=wrap;html=1;rounded=1;" vertex="1" parent="1">
          <mxGeometry x="250" y="540" width="140" height="90" as="geometry" />
        </mxCell>
        <mxCell id="eIXQAmytU_GyOYRYdAGd-26" value="voterEmail (&lt;span style=&quot;caret-color: rgb(0, 204, 0); color: rgb(0, 204, 0);&quot;&gt;String&lt;/span&gt;)" style="text;strokeColor=none;fillColor=none;align=left;verticalAlign=middle;spacingLeft=4;spacingRight=4;overflow=hidden;points=[[0,0.5],[1,0.5]];portConstraint=eastwest;rotatable=0;whiteSpace=wrap;html=1;" vertex="1" parent="eIXQAmytU_GyOYRYdAGd-25">
          <mxGeometry y="30" width="140" height="30" as="geometry" />
        </mxCell>
        <mxCell id="eIXQAmytU_GyOYRYdAGd-27" value="userChoice (&lt;span style=&quot;caret-color: rgb(0, 204, 0); color: rgb(0, 204, 0);&quot;&gt;String&lt;/span&gt;)" style="text;strokeColor=none;fillColor=none;align=left;verticalAlign=middle;spacingLeft=4;spacingRight=4;overflow=hidden;points=[[0,0.5],[1,0.5]];portConstraint=eastwest;rotatable=0;whiteSpace=wrap;html=1;" vertex="1" parent="eIXQAmytU_GyOYRYdAGd-25">
          <mxGeometry y="60" width="140" height="30" as="geometry" />
        </mxCell>
        <mxCell id="eIXQAmytU_GyOYRYdAGd-29" value="Food Menu" style="swimlane;fontStyle=0;childLayout=stackLayout;horizontal=1;startSize=30;horizontalStack=0;resizeParent=1;resizeParentMax=0;resizeLast=0;collapsible=1;marginBottom=0;whiteSpace=wrap;html=1;rounded=1;" vertex="1" parent="1">
          <mxGeometry x="510" y="510" width="140" height="120" as="geometry" />
        </mxCell>
        <mxCell id="eIXQAmytU_GyOYRYdAGd-30" value="weekDays&amp;nbsp;(&lt;span style=&quot;color: rgb(204, 204, 0);&quot;&gt;Map&lt;/span&gt;)" style="text;strokeColor=none;fillColor=none;align=left;verticalAlign=middle;spacingLeft=4;spacingRight=4;overflow=hidden;points=[[0,0.5],[1,0.5]];portConstraint=eastwest;rotatable=0;whiteSpace=wrap;html=1;" vertex="1" parent="eIXQAmytU_GyOYRYdAGd-29">
          <mxGeometry y="30" width="140" height="30" as="geometry" />
        </mxCell>
        <mxCell id="eIXQAmytU_GyOYRYdAGd-31" value="lunch (&lt;span style=&quot;caret-color: rgb(0, 204, 0); color: rgb(0, 204, 0);&quot;&gt;String&lt;/span&gt;)" style="text;strokeColor=none;fillColor=none;align=left;verticalAlign=middle;spacingLeft=4;spacingRight=4;overflow=hidden;points=[[0,0.5],[1,0.5]];portConstraint=eastwest;rotatable=0;whiteSpace=wrap;html=1;" vertex="1" parent="eIXQAmytU_GyOYRYdAGd-29">
          <mxGeometry y="60" width="140" height="30" as="geometry" />
        </mxCell>
        <mxCell id="eIXQAmytU_GyOYRYdAGd-32" value="dinner (&lt;span style=&quot;caret-color: rgb(0, 204, 0); color: rgb(0, 204, 0);&quot;&gt;String&lt;/span&gt;)" style="text;strokeColor=none;fillColor=none;align=left;verticalAlign=middle;spacingLeft=4;spacingRight=4;overflow=hidden;points=[[0,0.5],[1,0.5]];portConstraint=eastwest;rotatable=0;whiteSpace=wrap;html=1;" vertex="1" parent="eIXQAmytU_GyOYRYdAGd-29">
          <mxGeometry y="90" width="140" height="30" as="geometry" />
        </mxCell>
        <mxCell id="eIXQAmytU_GyOYRYdAGd-47" style="edgeStyle=orthogonalEdgeStyle;rounded=0;orthogonalLoop=1;jettySize=auto;html=1;exitX=1;exitY=0.5;exitDx=0;exitDy=0;entryX=0.5;entryY=0;entryDx=0;entryDy=0;" edge="1" parent="1" source="eIXQAmytU_GyOYRYdAGd-43" target="eIXQAmytU_GyOYRYdAGd-29">
          <mxGeometry relative="1" as="geometry" />
        </mxCell>
        <mxCell id="eIXQAmytU_GyOYRYdAGd-48" style="edgeStyle=orthogonalEdgeStyle;rounded=0;orthogonalLoop=1;jettySize=auto;html=1;exitX=1;exitY=0.5;exitDx=0;exitDy=0;entryX=0.5;entryY=0;entryDx=0;entryDy=0;" edge="1" parent="1" source="eIXQAmytU_GyOYRYdAGd-13" target="eIXQAmytU_GyOYRYdAGd-25">
          <mxGeometry relative="1" as="geometry" />
        </mxCell>
        <mxCell id="eIXQAmytU_GyOYRYdAGd-49" style="rounded=0;orthogonalLoop=1;jettySize=auto;html=1;exitX=0;exitY=0.5;exitDx=0;exitDy=0;entryX=0.5;entryY=0;entryDx=0;entryDy=0;fillColor=#e3c800;strokeColor=#B09500;edgeStyle=orthogonalEdgeStyle;shape=link;" edge="1" parent="1" source="eIXQAmytU_GyOYRYdAGd-20" target="eIXQAmytU_GyOYRYdAGd-5">
          <mxGeometry relative="1" as="geometry" />
        </mxCell>
        <mxCell id="eIXQAmytU_GyOYRYdAGd-50" style="edgeStyle=orthogonalEdgeStyle;rounded=0;orthogonalLoop=1;jettySize=auto;html=1;exitX=1;exitY=0.5;exitDx=0;exitDy=0;entryX=0;entryY=0.5;entryDx=0;entryDy=0;" edge="1" parent="1" source="eIXQAmytU_GyOYRYdAGd-9" target="eIXQAmytU_GyOYRYdAGd-17">
          <mxGeometry relative="1" as="geometry" />
        </mxCell>
        <mxCell id="eIXQAmytU_GyOYRYdAGd-51" value="&lt;font style=&quot;font-size: 24px;&quot;&gt;Eat-It&lt;/font&gt;" style="text;html=1;align=center;verticalAlign=middle;resizable=0;points=[];autosize=1;strokeColor=none;fillColor=none;" vertex="1" parent="1">
          <mxGeometry x="400" y="10" width="80" height="40" as="geometry" />
        </mxCell>
      </root>
    </mxGraphModel>
  </diagram>
</mxfile>
